<svg height="512" viewBox="0 0 64 64" width="512" xmlns="http://www.w3.org/2000/svg"><g id="Filled_outline" data-name="Filled outline"><path d="m51 4a2.828 2.828 0 0 0 -4 0l-19.259 19.259a6 6 0 1 0 4 4l19.259-19.259a2.828 2.828 0 0 0 0-4z" fill="#87cee9"/><g fill="#ffd782"><path d="m49 11 4 2h6v15l-7 2-4-1-1 1a2.12 2.12 0 0 1 -3 0 2.12 2.12 0 0 1 0-3l-1 1a2.12 2.12 0 0 1 -3 0 2.12 2.12 0 0 1 0-3 2.12 2.12 0 0 1 -3 0 2.12 2.12 0 0 1 0-3l2-2h-7a3 3 0 0 1 0-6h13z"/><path d="m39 20-2 2a2.12 2.12 0 0 0 0 3 2.12 2.12 0 0 0 3 0l3-3-2-2z"/><path d="m40 28a2.12 2.12 0 0 0 3 0l4-4-2-2h-2l-3 3a2.12 2.12 0 0 0 0 3z"/><path d="m44 30a2.12 2.12 0 0 0 3 0l3-3-3-3-3 3a2.12 2.12 0 0 0 0 3z"/></g><path d="m5 39h32a0 0 0 0 1 0 0v9a9 9 0 0 1 -9 9h-14a9 9 0 0 1 -9-9v-9a0 0 0 0 1 0 0z" fill="#ceac9a"/><path d="m7 57h28a0 0 0 0 1 0 0 4 4 0 0 1 -4 4h-20a4 4 0 0 1 -4-4 0 0 0 0 1 0 0z" fill="#995f5b"/><path d="m9 50a2.154 2.154 0 0 0 2 2 1.994 1.994 0 0 0 2-2v-5a2.157 2.157 0 0 1 2-2 1.994 1.994 0 0 1 2 2v1a2.157 2.157 0 0 0 2 2 1.994 1.994 0 0 0 2-2v-7h-12z" fill="#ffd782"/><path d="m5 39h4v4h-4z" fill="#995f5b"/><path d="m21 39h16v4h-16z" fill="#995f5b"/><path d="m39.293 28.706a3.066 3.066 0 0 0 3.241.726 3.081 3.081 0 0 0 .757 1.273 3.119 3.119 0 0 0 4.412 0l.6-.6 3.451.863a.99.99 0 0 0 .246.032.976.976 0 0 0 .274-.039l7-2a1 1 0 0 0 .726-.961v-15a1 1 0 0 0 -1-1h-5.733l-3.085-1.767 1.525-1.526a3.834 3.834 0 0 0 0-5.414 3.929 3.929 0 0 0 -5.414 0l-9.707 9.707h-4.586a3.995 3.995 0 0 0 -2.516 7.1l-2.047 2.047a7 7 0 1 0 5.414 5.414l2.8-2.8a3.078 3.078 0 0 0 2.739 1.849 3.1 3.1 0 0 0 .903 2.096zm3-1.413a1.123 1.123 0 0 1 -1.584 0 1.12 1.12 0 0 1 0-1.584l2.705-2.709h1.172l1 1zm4 2a1.147 1.147 0 0 1 -1.584 0 1.12 1.12 0 0 1 0-1.584l2.291-2.295 1.586 1.586zm1.414-24.586a1.882 1.882 0 0 1 2.586 0 1.831 1.831 0 0 1 0 2.586l-5.707 5.707h-5.172zm-17.12 10.88a1.986 1.986 0 0 1 1.413-.587h13a1 1 0 0 0 .707-.293l3.009-3.007 3.787 2.17a.994.994 0 0 0 .497.13h5v13.246l-6.018 1.719-2.026-.507.751-.751a1 1 0 0 0 0-1.414l-3-3-.293-.293h1.586v-2h-5.586l-1.707-1.707a1 1 0 0 0 -.707-.293h-9a2.1 2.1 0 0 1 -.586-.089 2 2 0 0 1 -.827-3.324zm.446 10.966a1 1 0 0 0 -.248 1 4.885 4.885 0 0 1 .215 1.447 5 5 0 1 1 -5-5 4.88 4.88 0 0 1 1.445.215 1 1 0 0 0 1-.248l3.006-3.006a3.934 3.934 0 0 0 .549.039h4.586zm6.346-3.053a1.112 1.112 0 0 1 .328-.792l1.707-1.708h1.172l1 1-2.293 2.293a1.146 1.146 0 0 1 -1.586 0 1.112 1.112 0 0 1 -.328-.793z"/><path d="m26.965 30.334a3.424 3.424 0 0 1 -2.522-.23l-.89 1.791a6.22 6.22 0 0 0 2.564.607 3.993 3.993 0 0 0 1.678-.348 4.058 4.058 0 0 0 2.175-2.911l-1.94-.486a2.157 2.157 0 0 1 -1.065 1.577z"/><path d="m11 27h4a3 3 0 0 0 3-3v-5h-2v5a1 1 0 0 1 -1 1h-4a3 3 0 0 0 0 6 1 1 0 0 1 1 1v4h2v-4a3 3 0 0 0 -3-3 1 1 0 0 1 0-2z"/><path d="m16 15h2v2h-2z"/><path d="m32 49a3 3 0 0 1 -3 3h-1v2h1a5.006 5.006 0 0 0 5-5v-2h-2z"/><path d="m24 52h2v2h-2z"/><path d="m38 48v-9a1 1 0 0 0 -1-1h-32a1 1 0 0 0 -1 1v9a9.98 9.98 0 0 0 4.026 8h-1.026a1 1 0 0 0 -1 1 5.006 5.006 0 0 0 5 5h20a5.006 5.006 0 0 0 5-5 1 1 0 0 0 -1-1h-1.026a9.98 9.98 0 0 0 4.026-8zm-16-8h14v2h-14zm-12 0h10v6a.993.993 0 0 1 -1 1 1.19 1.19 0 0 1 -1-1v-1a3.007 3.007 0 0 0 -3-3 3.16 3.16 0 0 0 -3 3v5a.993.993 0 0 1 -1 1 1.17 1.17 0 0 1 -1-1zm-4 0h2v2h-2zm25 20h-20a3.006 3.006 0 0 1 -2.829-2h25.658a3.006 3.006 0 0 1 -2.829 2zm-3-4h-14a8.009 8.009 0 0 1 -8-8v-4h2v6a3.16 3.16 0 0 0 3 3 3.007 3.007 0 0 0 3-3v-5a1.19 1.19 0 0 1 1-1 .993.993 0 0 1 1 1v1a3.16 3.16 0 0 0 3 3 3.007 3.007 0 0 0 3-3v-2h14v4a8.009 8.009 0 0 1 -8 8z"/></g></svg>